<?xml version="1.0" encoding="UTF-8" standalone="no"?>
<!-- Created with Inkscape (http://www.inkscape.org/) -->

<svg
   width="243.69316mm"
   height="243.95654mm"
   viewBox="0 0 243.69316 243.95654"
   version="1.1"
   id="svg5"
   inkscape:version="1.1 (c68e22c387, 2021-05-23)"
   sodipodi:docname="logout.svg"
   xmlns:inkscape="http://www.inkscape.org/namespaces/inkscape"
   xmlns:sodipodi="http://sodipodi.sourceforge.net/DTD/sodipodi-0.dtd"
   xmlns="http://www.w3.org/2000/svg"
   xmlns:svg="http://www.w3.org/2000/svg">
  <sodipodi:namedview
     id="namedview7"
     pagecolor="#ffffff"
     bordercolor="#666666"
     borderopacity="1.0"
     inkscape:pageshadow="2"
     inkscape:pageopacity="0.0"
     inkscape:pagecheckerboard="0"
     inkscape:document-units="mm"
     showgrid="false"
     inkscape:zoom="0.74118967"
     inkscape:cx="367.65218"
     inkscape:cy="462.09494"
     inkscape:window-width="1920"
     inkscape:window-height="1017"
     inkscape:window-x="-8"
     inkscape:window-y="-8"
     inkscape:window-maximized="1"
     inkscape:current-layer="layer1" />
  <defs
     id="defs2" />
  <g
     inkscape:label="Calque 1"
     inkscape:groupmode="layer"
     id="layer1"
     transform="translate(-7.9526787,-26.51637)">
    <path
       style="fill:#000000;stroke-width:0.264583"
       d="m 31.644804,270.17072 c -5.873901,-0.74612 -11.391444,-3.47701 -15.631346,-7.73669 -4.471933,-4.4928 -7.0018385,-9.70937 -7.7747525,-16.03125 -0.381369,-3.11933 -0.381369,-192.686218 0,-195.805547 0.793114,-6.487104 3.3407705,-11.63744 8.0455855,-16.264934 3.625089,-3.565511 7.960511,-5.938609 13.111554,-7.176926 1.874171,-0.450553 5.095812,-0.481543 58.009893,-0.558023 L 143.43125,26.51637 V 40.147775 53.779173 H 89.323968 35.216678 V 148.5 243.22083 h 54.10729 54.107282 v 13.62604 13.62604 l -54.967182,-0.0335 c -30.28033,-0.0184 -55.798989,-0.13913 -56.819264,-0.26872 z M 170.68334,188.99439 V 161.99375 H 116.44376 62.204178 V 148.5 135.00625 h 54.238332 54.23833 l 0.0674,-27.02047 0.0674,-27.020464 40.4151,33.678714 c 22.22831,18.52329 40.4151,33.75852 40.4151,33.85605 0,0.17208 -79.89183,66.85917 -80.60619,67.28338 -0.29774,0.1768 -0.3563,-4.22659 -0.3563,-26.78907 z"
       id="path57" />
  </g>
</svg>
