<?xml version="1.0" encoding="UTF-8" standalone="no"?>
<!-- Created with Inkscape (http://www.inkscape.org/) -->

<svg
   width="79.195694mm"
   height="56.441822mm"
   viewBox="0 0 79.195694 56.441822"
   version="1.1"
   id="svg5"
   inkscape:version="1.1 (c68e22c387, 2021-05-23)"
   sodipodi:docname="logo.svg"
   xmlns:inkscape="http://www.inkscape.org/namespaces/inkscape"
   xmlns:sodipodi="http://sodipodi.sourceforge.net/DTD/sodipodi-0.dtd"
   xmlns="http://www.w3.org/2000/svg"
   xmlns:svg="http://www.w3.org/2000/svg">
  <sodipodi:namedview
     id="namedview7"
     pagecolor="#ffffff"
     bordercolor="#666666"
     borderopacity="1.0"
     inkscape:pageshadow="2"
     inkscape:pageopacity="0.0"
     inkscape:pagecheckerboard="0"
     inkscape:document-units="mm"
     showgrid="false"
     inkscape:zoom="2.9647587"
     inkscape:cx="145.20575"
     inkscape:cy="103.38109"
     inkscape:window-width="1920"
     inkscape:window-height="1017"
     inkscape:window-x="-8"
     inkscape:window-y="-8"
     inkscape:window-maximized="1"
     inkscape:current-layer="layer1" />
  <defs
     id="defs2" />
  <g
     inkscape:label="Calque 1"
     inkscape:groupmode="layer"
     id="layer1"
     transform="translate(-63.154367,-119.38969)">
    <g
       id="g251"
       transform="translate(-21.43111,10.847863)">
      <path
         style="fill:#eec607;stroke-width:0.264583"
         d="m 125.24086,141.40147 c -0.35407,-0.66182 -0.19134,-25.5334 0.17003,-25.98724 0.29505,-0.37056 4.50259,-0.54942 10.52288,-0.44732 l 3.37344,0.0572 v 1.43357 c 0,2.40698 0.12568,2.33097 -3.54105,2.14159 -1.76321,-0.0911 -3.74161,-0.0656 -4.39645,0.0565 l -1.19063,0.22207 0.0888,4.48929 c 0.0488,2.46911 0.1377,4.53848 0.19752,4.5986 0.0598,0.0601 1.59306,0.0815 3.40723,0.0475 3.73389,-0.07 3.5038,-0.21804 3.64831,2.34688 0.0771,1.36919 0.41139,1.23953 -3.79992,1.474 l -3.0727,0.17108 -0.1749,2.31692 c -0.0962,1.27431 -0.0687,2.60304 0.061,2.95273 l 0.23589,0.63579 h 4.33463 4.33462 l 0.0774,1.45542 c 0.12943,2.43434 0.39957,2.34441 -7.31346,2.43476 -6.24207,0.0731 -6.72463,0.0455 -6.96256,-0.39929 z m 12.74343,-2.43255 c 0,-0.0728 -0.0595,-0.1323 -0.13229,-0.1323 -0.0728,0 -0.13229,0.0595 -0.13229,0.1323 0,0.0728 0.0595,0.13229 0.13229,0.13229 0.0728,0 0.13229,-0.0595 0.13229,-0.13229 z m -10.14236,-0.30869 c -0.097,-0.097 -0.25576,-0.097 -0.35278,0 -0.097,0.097 -0.0176,0.17639 0.17639,0.17639 0.19403,0 0.27341,-0.0794 0.17639,-0.17639 z m 9.08403,0.0441 c 0,-0.0728 -0.0595,-0.13229 -0.13229,-0.13229 -0.0728,0 -0.13229,0.0595 -0.13229,0.13229 0,0.0728 0.0595,0.13229 0.13229,0.13229 0.0728,0 0.13229,-0.0595 0.13229,-0.13229 z m -9.78958,-1.32291 c 0,-0.0728 -0.0595,-0.1323 -0.13229,-0.1323 -0.0728,0 -0.1323,0.0595 -0.1323,0.1323 0,0.0728 0.0595,0.13229 0.1323,0.13229 0.0728,0 0.13229,-0.0595 0.13229,-0.13229 z m 0.62484,-1.32292 c -0.0838,-0.21828 -0.25488,-0.39688 -0.38026,-0.39688 -0.12539,0 -0.15944,0.1786 -0.0757,0.39688 0.0838,0.21828 0.25488,0.39687 0.38027,0.39687 0.12538,0 0.15944,-0.17859 0.0757,-0.39687 z m 0.16891,-1.71979 c 0,-0.14552 -0.11907,-0.26459 -0.26459,-0.26459 -0.14552,0 -0.26458,0.11907 -0.26458,0.26459 0,0.14552 0.11906,0.26458 0.26458,0.26458 0.14552,0 0.26459,-0.11906 0.26459,-0.26458 z m -0.52917,-1.19063 c 0,-0.0728 -0.0595,-0.13229 -0.13229,-0.13229 -0.0728,0 -0.13229,0.0595 -0.13229,0.13229 0,0.0728 0.0595,0.13229 0.13229,0.13229 0.0728,0 0.13229,-0.0595 0.13229,-0.13229 z m -0.26458,-1.19062 c 0,-0.14552 -0.12609,-0.26459 -0.2802,-0.26459 -0.15411,0 -0.20662,0.11907 -0.11668,0.26459 0.0899,0.14552 0.21603,0.26458 0.2802,0.26458 0.0642,0 0.11668,-0.11906 0.11668,-0.26458 z m 1.97721,-1.5875 c 0.20504,0 0.44934,-0.12384 0.54288,-0.27519 0.11029,-0.17844 -0.0703,-0.21487 -0.51355,-0.10361 -0.44867,0.11261 -0.68363,0.0632 -0.68363,-0.14374 0,-0.68578 -0.61945,-0.0603 -0.6629,0.66938 -0.0676,1.13443 0.15941,1.35133 0.57802,0.55239 0.2015,-0.38458 0.53413,-0.69923 0.73918,-0.69923 z m 3.22626,0.88194 c -0.097,-0.097 -0.25576,-0.097 -0.35278,0 -0.097,0.097 -0.0176,0.17639 0.17639,0.17639 0.19403,0 0.2734,-0.0794 0.17639,-0.17639 z m -5.52013,-1.14653 c -0.0333,-0.43656 -0.15422,-0.79375 -0.26879,-0.79375 -0.24797,0 -0.27184,0.58489 -0.0477,1.16899 0.25022,0.65207 0.38279,0.49489 0.31649,-0.37524 z m 0.71353,-1.05833 c 0.0899,-0.14552 0.0374,-0.26458 -0.11667,-0.26458 -0.15411,0 -0.2802,0.11906 -0.2802,0.26458 0,0.14552 0.0525,0.26458 0.11667,0.26458 0.0642,0 0.19026,-0.11906 0.2802,-0.26458 z m 1.19063,-0.38126 c 0,-0.0642 -0.11907,-0.19026 -0.26459,-0.2802 -0.14552,-0.0899 -0.26458,-0.0374 -0.26458,0.11668 0,0.15411 0.11906,0.2802 0.26458,0.2802 0.14552,0 0.26459,-0.0525 0.26459,-0.11668 z m -2.11667,-0.2802 c 0,-0.0728 -0.0595,-0.13229 -0.13229,-0.13229 -0.0728,0 -0.13229,0.0595 -0.13229,0.13229 0,0.0728 0.0595,0.13229 0.13229,0.13229 0.0728,0 0.13229,-0.0595 0.13229,-0.13229 z m 0.97014,-0.30868 c -0.097,-0.097 -0.17639,-0.0176 -0.17639,0.17639 0,0.19403 0.0794,0.2734 0.17639,0.17639 0.097,-0.097 0.097,-0.25576 0,-0.35278 z m -0.17639,-0.46945 c 0,-0.0642 -0.13746,-0.20163 -0.30546,-0.30547 -0.18926,-0.11696 -0.23365,-0.0726 -0.11668,0.11668 0.1885,0.305 0.42214,0.40949 0.42214,0.18879 z m 0.27003,-2.26121 c -0.4897,-0.30265 -0.59316,-0.1992 -0.37342,0.37342 0.12714,0.33131 0.25225,0.37394 0.46704,0.15915 0.21479,-0.21479 0.18971,-0.35746 -0.0936,-0.53257 z m 0.52372,-4.89816 c 0,-0.0728 -0.0595,-0.13229 -0.13229,-0.13229 -0.0728,0 -0.13229,0.0595 -0.13229,0.13229 0,0.0728 0.0595,0.13229 0.13229,0.13229 0.0728,0 0.13229,-0.0595 0.13229,-0.13229 z m -0.26458,-0.77813 c 0,-0.0642 -0.11907,-0.19026 -0.26459,-0.2802 -0.14552,-0.0899 -0.26458,-0.0374 -0.26458,0.11668 0,0.1541 0.11906,0.28019 0.26458,0.28019 0.14552,0 0.26459,-0.0525 0.26459,-0.11667 z m 0.70555,-0.58888 c -0.097,-0.097 -0.25576,-0.097 -0.35278,0 -0.097,0.097 -0.0176,0.17639 0.17639,0.17639 0.19403,0 0.27341,-0.0794 0.17639,-0.17639 z m 9.08403,-1.41111 c 0,-0.14552 -0.11906,-0.26459 -0.26458,-0.26459 -0.14552,0 -0.26459,0.11907 -0.26459,0.26459 0,0.14552 0.11907,0.26458 0.26459,0.26458 0.14552,0 0.26458,-0.11906 0.26458,-0.26458 z m -27.99178,22.29114 0.0782,-1.78593 h 4.28619 c 2.51679,0 4.38792,-0.10923 4.53261,-0.26459 0.14597,-0.15672 0.17835,-2.09825 0.0794,-4.7625 l -0.16699,-4.49791 h -3.43865 -3.43865 l -0.22493,-1.67219 c -0.12372,-0.91969 -0.18348,-1.71364 -0.13281,-1.76431 0.10132,-0.10131 4.19034,-0.36534 5.98693,-0.38657 l 1.13315,-0.0134 -0.0748,-2.97657 -0.0748,-2.97656 h -4.36563 -4.36563 l -0.0777,-1.61167 c -0.055,-1.14044 0.0313,-1.70212 0.29501,-1.92098 0.25799,-0.21412 2.43357,-0.32881 7.06966,-0.3727 l 6.69697,-0.0634 0.22902,0.79375 c 0.27063,0.938 0.11726,25.29963 -0.16213,25.75169 -0.1383,0.22378 -2.10008,0.30977 -7.06709,0.30977 h -6.87564 z m 2.06261,-0.71199 c 0,-0.0642 -0.11906,-0.19026 -0.26458,-0.28019 -0.14552,-0.0899 -0.26458,-0.0374 -0.26458,0.11667 0,0.15411 0.11906,0.2802 0.26458,0.2802 0.14552,0 0.26458,-0.0525 0.26458,-0.11668 z m 8.73125,-1.60311 c 0,-0.0728 -0.0595,-0.13229 -0.13229,-0.13229 -0.0728,0 -0.13229,0.0595 -0.13229,0.13229 0,0.0728 0.0595,0.13229 0.13229,0.13229 0.0728,0 0.13229,-0.0595 0.13229,-0.13229 z m 1.05834,-0.24897 c 0,-0.0642 -0.13746,-0.20163 -0.30547,-0.30546 -0.18925,-0.11697 -0.23364,-0.0726 -0.11667,0.11667 0.1885,0.305 0.42214,0.40949 0.42214,0.18879 z m -0.52917,-1.07395 c 0,-0.0728 -0.0595,-0.13229 -0.13229,-0.13229 -0.0728,0 -0.13229,0.0595 -0.13229,0.13229 0,0.0728 0.0595,0.13229 0.13229,0.13229 0.0728,0 0.13229,-0.0595 0.13229,-0.13229 z m 0.62543,-5.29014 c -0.0834,-0.21745 -0.2583,-0.32949 -0.38857,-0.24897 -0.37357,0.23088 -0.27622,0.64432 0.15171,0.64432 0.23603,0 0.32901,-0.1552 0.23686,-0.39535 z m 0.16832,-1.85361 c 0,-0.0728 -0.0595,-0.13229 -0.13229,-0.13229 -0.0728,0 -0.13229,0.0595 -0.13229,0.13229 0,0.0728 0.0595,0.13229 0.13229,0.13229 0.0728,0 0.13229,-0.0595 0.13229,-0.13229 z m -1.05833,-0.92604 c 0,-0.14552 -0.12609,-0.26458 -0.2802,-0.26458 -0.15411,0 -0.20662,0.11906 -0.11668,0.26458 0.0899,0.14552 0.21603,0.26458 0.2802,0.26458 0.0642,0 0.11668,-0.11906 0.11668,-0.26458 z m 0.70555,0.0882 c -0.097,-0.097 -0.25576,-0.097 -0.35278,0 -0.097,0.097 -0.0176,0.17639 0.17639,0.17639 0.19403,0 0.27341,-0.0794 0.17639,-0.17639 z m 1.05834,0 c -0.097,-0.097 -0.25577,-0.097 -0.35278,0 -0.097,0.097 -0.0176,0.17639 0.17639,0.17639 0.19402,0 0.2734,-0.0794 0.17639,-0.17639 z m -0.70556,-0.61736 c 0,-0.14552 -0.11906,-0.26458 -0.26458,-0.26458 -0.14552,0 -0.26459,0.11906 -0.26459,0.26458 0,0.14552 0.11907,0.26459 0.26459,0.26459 0.14552,0 0.26458,-0.11907 0.26458,-0.26459 z m 0.79375,-0.63982 c 0,-0.59476 -0.301,-1.22098 -0.52141,-1.08476 -0.26703,0.16503 -0.0119,1.46 0.28767,1.46 0.12856,0 0.23374,-0.16886 0.23374,-0.37524 z m -1.53541,-0.83145 c 0.135,-1.15637 -0.11974,-1.37546 -0.58609,-0.50407 -0.19204,0.35883 -0.56717,0.65243 -0.83363,0.65243 -0.26645,0 -0.48445,0.10255 -0.48445,0.22789 0,0.12534 0.29765,0.17099 0.66145,0.10145 0.38612,-0.0738 0.66146,-0.003 0.66146,0.16898 0,0.7337 0.48282,0.19655 0.58126,-0.64668 z m -4.28542,-0.77768 c 0,-0.0728 -0.0595,-0.1323 -0.13229,-0.1323 -0.0728,0 -0.1323,0.0595 -0.1323,0.1323 0,0.0728 0.0595,0.13229 0.1323,0.13229 0.0728,0 0.13229,-0.0595 0.13229,-0.13229 z m 5.20347,-0.83785 c -0.097,-0.097 -0.17639,-0.0176 -0.17639,0.17639 0,0.19402 0.0794,0.2734 0.17639,0.17639 0.097,-0.097 0.097,-0.25577 0,-0.35278 z m -0.17639,-1.01424 c 0,-0.0728 -0.0595,-0.13229 -0.13229,-0.13229 -0.0728,0 -0.13229,0.0595 -0.13229,0.13229 0,0.0728 0.0595,0.13229 0.13229,0.13229 0.0728,0 0.13229,-0.0595 0.13229,-0.13229 z m -0.39688,-1.19062 c 0.0899,-0.14552 0.0374,-0.26459 -0.11667,-0.26459 -0.15411,0 -0.2802,0.11907 -0.2802,0.26459 0,0.14552 0.0525,0.26458 0.11668,0.26458 0.0642,0 0.19026,-0.11906 0.28019,-0.26458 z m 0.1323,-1.71979 c 0,-0.21829 -0.11907,-0.39688 -0.26459,-0.39688 -0.14552,0 -0.26458,0.17859 -0.26458,0.39688 0,0.21828 0.11906,0.39687 0.26458,0.39687 0.14552,0 0.26459,-0.17859 0.26459,-0.39687 z m 0.52916,-1.32292 c 0,-0.0728 -0.0595,-0.13229 -0.13229,-0.13229 -0.0728,0 -0.13229,0.0595 -0.13229,0.13229 0,0.0728 0.0595,0.13229 0.13229,0.13229 0.0728,0 0.13229,-0.0595 0.13229,-0.13229 z m -9.87777,-1.6316 c -0.097,-0.097 -0.17639,-0.0176 -0.17639,0.17639 0,0.19403 0.0794,0.2734 0.17639,0.17639 0.097,-0.097 0.097,-0.25576 0,-0.35278 z m 9.26041,0.26458 c -0.097,-0.097 -0.25576,-0.097 -0.35278,0 -0.097,0.097 -0.0176,0.17639 0.17639,0.17639 0.19403,0 0.27341,-0.0794 0.17639,-0.17639 z m -10.23055,-0.48506 c 0,-0.0728 -0.0595,-0.1323 -0.13229,-0.1323 -0.0728,0 -0.1323,0.0595 -0.1323,0.1323 0,0.0728 0.0595,0.13229 0.1323,0.13229 0.0728,0 0.13229,-0.0595 0.13229,-0.13229 z"
         id="path255" />
      <path
         style="fill:#264d98;stroke-width:0.264583"
         d="m 84.660765,164.70051 c -0.06949,-0.18238 -0.09566,-12.89269 -0.05817,-28.24514 l 0.06816,-27.91354 h 39.555205 39.55521 v 28.17813 28.17812 l -39.49704,0.067 c -31.458336,0.0534 -39.52274,-5.3e-4 -39.623362,-0.26458 z M 161.92908,136.71996 V 110.39392 H 124.22596 86.522835 l -0.06821,26.06145 c -0.03751,14.33381 -0.01133,26.2107 0.05819,26.3931 0.100649,0.26408 7.794728,0.31798 37.771335,0.26458 l 37.64493,-0.067 z M 91.114074,157.4236 c -0.06018,-1.94073 -0.06134,-2.81217 -0.0093,-7.01146 l 0.04832,-3.9026 h 3.175 3.175 v 0.78262 0.78262 l -2.050521,0.0773 -2.05052,0.0773 0.04752,1.32292 c 0.02614,0.7276 0.0559,1.64439 0.06615,2.03732 0.01777,0.68158 0.0885,0.71804 1.539979,0.79375 1.504089,0.0785 1.522295,0.0891 1.604263,0.93924 l 0.08291,0.8599 h -1.604264 -1.604264 v 1.32291 1.32292 h 1.953517 c 1.681221,0 1.971434,0.0685 2.082069,0.49159 0.0707,0.27037 0.01914,0.68709 -0.11458,0.92604 -0.203388,0.36343 -0.738385,0.43445 -3.272694,0.43445 h -3.029562 z m 1.097303,-1.52135 c 0,-0.0728 -0.05953,-0.13229 -0.132292,-0.13229 -0.07276,0 -0.132292,0.0595 -0.132292,0.13229 0,0.0728 0.05953,0.13229 0.132292,0.13229 0.07276,0 0.132292,-0.0595 0.132292,-0.13229 z m 0.529166,-2.52916 c 0,-0.13693 -0.09922,-0.24897 -0.220486,-0.24897 -0.121267,0 -0.220486,0.17336 -0.220486,0.38524 0,0.21188 0.09922,0.32392 0.220486,0.24897 0.121268,-0.075 0.220486,-0.24831 0.220486,-0.38524 z m -0.881944,-0.16077 c -0.09701,-0.097 -0.176389,-0.0176 -0.176389,0.17639 0,0.19402 0.07937,0.2734 0.176389,0.17639 0.09701,-0.097 0.09701,-0.25577 0,-0.35278 z m 0.352778,-0.48507 c 0,-0.0728 -0.05953,-0.13229 -0.132292,-0.13229 -0.07276,0 -0.132292,0.0595 -0.132292,0.13229 0,0.0728 0.05953,0.13229 0.132292,0.13229 0.07276,0 0.132292,-0.0595 0.132292,-0.13229 z m 11.302183,3.9026 c -0.083,-1.12778 -0.11008,-2.34817 -0.0601,-2.71198 0.05,-0.3638 0.10081,-2.1795 0.11294,-4.03489 l 0.022,-3.37344 h 3.175 3.175 v 0.78262 0.78262 l -2.05052,0.0773 -2.05052,0.0773 0.0475,1.32292 c 0.0261,0.7276 0.0559,1.64439 0.0661,2.03732 0.0178,0.68158 0.0885,0.71804 1.53997,0.79375 1.50409,0.0785 1.5223,0.0891 1.60427,0.93924 l 0.0829,0.8599 h -1.60427 -1.60426 v 1.32291 1.32292 h 1.95352 c 1.68122,0 1.97143,0.0685 2.08207,0.49159 0.0707,0.27037 0.0191,0.68709 -0.11458,0.92604 -0.20311,0.36293 -0.73562,0.43445 -3.23466,0.43445 h -2.99152 z m 1.13323,-0.7276 c 0,-0.0728 -0.0595,-0.13229 -0.13229,-0.13229 -0.0728,0 -0.13229,0.0595 -0.13229,0.13229 0,0.0728 0.0595,0.13229 0.13229,0.13229 0.0728,0 0.13229,-0.0595 0.13229,-0.13229 z m 0.52917,-2.52916 c 0,-0.13693 -0.11906,-0.24897 -0.26458,-0.24897 -0.14552,0 -0.26459,0.18562 -0.26459,0.41249 0,0.22687 0.11907,0.33891 0.26459,0.24897 0.14552,-0.0899 0.26458,-0.27556 0.26458,-0.41249 z m -0.88194,-0.16077 c -0.097,-0.097 -0.17639,-0.0176 -0.17639,0.17639 0,0.19402 0.0794,0.2734 0.17639,0.17639 0.097,-0.097 0.097,-0.25577 0,-0.35278 z m 0.35277,-0.48507 c 0,-0.0728 -0.0595,-0.13229 -0.13229,-0.13229 -0.0728,0 -0.13229,0.0595 -0.13229,0.13229 0,0.0728 0.0595,0.13229 0.13229,0.13229 0.0728,0 0.13229,-0.0595 0.13229,-0.13229 z m 8.57499,5.75064 c -0.1587,-0.10692 -0.43646,-1.14689 -0.61724,-2.31106 -0.18077,-1.16416 -0.48764,-2.83104 -0.68193,-3.70416 -0.41719,-1.87483 -0.92582,-4.90773 -0.92582,-5.52062 0,-0.32786 0.25485,-0.43251 1.0533,-0.43251 0.87902,0 1.07389,0.0985 1.17779,0.59531 0.0685,0.32742 0.44104,2.50032 0.82792,4.82865 0.38687,2.32833 0.72306,4.25616 0.74707,4.28407 0.024,0.0279 0.31825,-1.46038 0.65385,-3.30729 0.3356,-1.84692 0.73583,-4.04264 0.88941,-4.87939 l 0.27922,-1.52135 h 1.02218 c 0.5622,0 1.02218,0.0853 1.02218,0.18944 0,0.10419 -0.23126,1.32458 -0.51391,2.71198 -0.28264,1.38739 -0.7719,3.95129 -1.08724,5.69754 -0.31534,1.74625 -0.70915,3.26247 -0.87516,3.36939 -0.166,0.10691 -0.8376,0.19438 -1.49244,0.19438 -0.65484,0 -1.32047,-0.0875 -1.47918,-0.19438 z m 0.42085,-3.63397 c 0,-0.0728 -0.0595,-0.1323 -0.1323,-0.1323 -0.0728,0 -0.13229,0.0595 -0.13229,0.1323 0,0.0728 0.0595,0.13229 0.13229,0.13229 0.0728,0 0.1323,-0.0595 0.1323,-0.13229 z m -0.52917,-0.52917 c 0,-0.0728 -0.0595,-0.13229 -0.13229,-0.13229 -0.0728,0 -0.13229,0.0595 -0.13229,0.13229 0,0.0728 0.0595,0.13229 0.13229,0.13229 0.0728,0 0.13229,-0.0595 0.13229,-0.13229 z m 0,-0.79375 c 0,-0.0728 -0.0595,-0.13229 -0.13229,-0.13229 -0.0728,0 -0.13229,0.0595 -0.13229,0.13229 0,0.0728 0.0595,0.13229 0.13229,0.13229 0.0728,0 0.13229,-0.0595 0.13229,-0.13229 z m 0.13229,-0.66146 c 0.0899,-0.14552 0.10399,-0.26458 0.0312,-0.26458 -0.0728,0 -0.20587,0.11906 -0.29581,0.26458 -0.0899,0.14552 -0.10399,0.26458 -0.0312,0.26458 0.0728,0 0.20587,-0.11906 0.29581,-0.26458 z m 3.83646,-1.19062 c 0,-0.0728 -0.0595,-0.1323 -0.13229,-0.1323 -0.0728,0 -0.13229,0.0595 -0.13229,0.1323 0,0.0728 0.0595,0.13229 0.13229,0.13229 0.0728,0 0.13229,-0.0595 0.13229,-0.13229 z m 0.13229,-3.04271 c 0.0899,-0.14552 0.10399,-0.26459 0.0312,-0.26459 -0.0728,0 -0.20587,0.11907 -0.29581,0.26459 -0.0899,0.14552 -0.10399,0.26458 -0.0312,0.26458 0.0728,0 0.20587,-0.11906 0.29581,-0.26458 z m 0.66146,-0.66146 c 0,-0.0728 -0.0595,-0.13229 -0.13229,-0.13229 -0.0728,0 -0.13229,0.0595 -0.13229,0.13229 0,0.0728 0.0595,0.13229 0.13229,0.13229 0.0728,0 0.13229,-0.0595 0.13229,-0.13229 z m 0,-0.52917 c 0,-0.0728 -0.0595,-0.13229 -0.13229,-0.13229 -0.0728,0 -0.13229,0.0595 -0.13229,0.13229 0,0.0728 0.0595,0.13229 0.13229,0.13229 0.0728,0 0.13229,-0.0595 0.13229,-0.13229 z m 1.74811,8.7974 c -0.0918,-1.34607 -0.11506,-2.68552 -0.0517,-2.97656 0.0634,-0.29105 0.12431,-1.92816 0.13544,-3.63803 l 0.0202,-3.10885 h 3.175 3.175 v 0.78262 0.78262 l -2.05052,0.0773 -2.05052,0.0773 0.0364,1.32292 c 0.0834,3.0341 -0.0832,2.74237 1.61727,2.83107 1.50409,0.0785 1.52229,0.0891 1.60426,0.93924 l 0.0829,0.8599 h -1.60426 -1.60427 v 1.32291 1.32292 h 1.95352 c 1.68122,0 1.97143,0.0685 2.08207,0.49159 0.0707,0.27037 0.0192,0.68709 -0.11458,0.92604 -0.20316,0.36302 -0.7361,0.43445 -3.24123,0.43445 h -2.9981 z m 1.16231,-0.33073 c 0,-0.0728 -0.0595,-0.13229 -0.13229,-0.13229 -0.0728,0 -0.1323,0.0595 -0.1323,0.13229 0,0.0728 0.0595,0.13229 0.1323,0.13229 0.0728,0 0.13229,-0.0595 0.13229,-0.13229 z m 0.52916,-2.52916 c 0,-0.13693 -0.11906,-0.24897 -0.26458,-0.24897 -0.14552,0 -0.26458,0.18562 -0.26458,0.41249 0,0.22687 0.11906,0.33891 0.26458,0.24897 0.14552,-0.0899 0.26458,-0.27556 0.26458,-0.41249 z m -0.88194,-0.16077 c -0.097,-0.097 -0.17639,-0.0176 -0.17639,0.17639 0,0.19402 0.0794,0.2734 0.17639,0.17639 0.097,-0.097 0.097,-0.25577 0,-0.35278 z m 0.35278,-0.48507 c 0,-0.0728 -0.0595,-0.13229 -0.13229,-0.13229 -0.0728,0 -0.1323,0.0595 -0.1323,0.13229 0,0.0728 0.0595,0.13229 0.1323,0.13229 0.0728,0 0.13229,-0.0595 0.13229,-0.13229 z m 6.79097,5.77673 c -0.25717,-0.25716 -0.20842,-11.26969 0.0517,-11.67986 0.14505,-0.22873 0.65483,-0.31885 1.49662,-0.26459 1.23553,0.0797 1.28716,0.11638 1.60354,1.14064 0.17979,0.58208 0.68864,2.18942 1.13078,3.57187 l 0.80388,2.51354 0.0805,-3.57187 0.0805,-3.57188 0.99219,-0.0821 0.99218,-0.0821 v 5.96405 5.96406 l -0.63454,0.15926 c -1.63671,0.41079 -1.7325,0.28522 -3.24218,-4.25022 l -1.40912,-4.23333 0.0179,4.02647 c 0.01,2.21456 -0.058,4.14932 -0.15083,4.29948 -0.1869,0.30241 -1.53553,0.37427 -1.81319,0.0966 z m 5.64444,-1.80798 c 0,-0.0728 -0.0595,-0.13229 -0.13229,-0.13229 -0.0728,0 -0.13229,0.0595 -0.13229,0.13229 0,0.0728 0.0595,0.13229 0.13229,0.13229 0.0728,0 0.13229,-0.0595 0.13229,-0.13229 z m 0.52917,0 c 0,-0.0728 -0.0595,-0.13229 -0.13229,-0.13229 -0.0728,0 -0.13229,0.0595 -0.13229,0.13229 0,0.0728 0.0595,0.13229 0.13229,0.13229 0.0728,0 0.13229,-0.0595 0.13229,-0.13229 z m -0.52917,-0.52917 c 0,-0.0728 -0.0595,-0.13229 -0.13229,-0.13229 -0.0728,0 -0.13229,0.0595 -0.13229,0.13229 0,0.0728 0.0595,0.13229 0.13229,0.13229 0.0728,0 0.13229,-0.0595 0.13229,-0.13229 z m 0.52917,-0.26458 c 0,-0.0728 -0.0595,-0.13229 -0.13229,-0.13229 -0.0728,0 -0.13229,0.0595 -0.13229,0.13229 0,0.0728 0.0595,0.13229 0.13229,0.13229 0.0728,0 0.13229,-0.0595 0.13229,-0.13229 z m -0.88194,-0.30868 c -0.097,-0.097 -0.25577,-0.097 -0.35278,0 -0.097,0.097 -0.0176,0.17639 0.17639,0.17639 0.19402,0 0.2734,-0.0794 0.17639,-0.17639 z m -4.14514,-5.24757 c 0,-0.0728 -0.0595,-0.13229 -0.1323,-0.13229 -0.0728,0 -0.13229,0.0595 -0.13229,0.13229 0,0.0728 0.0595,0.13229 0.13229,0.13229 0.0728,0 0.1323,-0.0595 0.1323,-0.13229 z m 0.26458,-1.85208 c 0,-0.0728 -0.0595,-0.1323 -0.13229,-0.1323 -0.0728,0 -0.13229,0.0595 -0.13229,0.1323 0,0.0728 0.0595,0.13229 0.13229,0.13229 0.0728,0 0.13229,-0.0595 0.13229,-0.13229 z m -0.39688,-0.39688 c 0.0899,-0.14552 0.0374,-0.26458 -0.11667,-0.26458 -0.15411,0 -0.2802,0.11906 -0.2802,0.26458 0,0.14552 0.0525,0.26458 0.11668,0.26458 0.0642,0 0.19026,-0.11906 0.28019,-0.26458 z m 9.6573,8.11095 c 0,-1.35981 -0.0778,-3.74304 -0.17277,-5.29606 l -0.17277,-2.82368 -0.86278,0.16186 c -0.69436,0.13026 -0.9187,0.0574 -1.1492,-0.37331 -0.15753,-0.29435 -0.21458,-0.72239 -0.12677,-0.95122 0.13376,-0.34856 0.71291,-0.41604 3.57093,-0.41604 3.23488,0 3.41127,0.0274 3.41127,0.52917 0,0.29104 0.0298,0.61846 0.0661,0.7276 0.0364,0.10914 -0.46964,0.25797 -1.12448,0.33073 l -1.19063,0.13229 -0.0343,4.89479 c -0.0188,2.69214 -0.0486,5.04362 -0.0661,5.22552 -0.0197,0.20415 -0.43693,0.33073 -1.09021,0.33073 h -1.05833 z m 1.46943,-3.8193 c -0.14331,-0.1433 -0.94027,0.61091 -0.94027,0.88983 0,0.10571 0.23886,-0.024 0.53079,-0.28816 0.29194,-0.26419 0.4762,-0.53494 0.40948,-0.60167 z m -0.4111,-0.45519 c 0,-0.0728 -0.0595,-0.13229 -0.13229,-0.13229 -0.0728,0 -0.13229,0.0595 -0.13229,0.13229 0,0.0728 0.0595,0.13229 0.13229,0.13229 0.0728,0 0.13229,-0.0595 0.13229,-0.13229 z m 4.5473,5.88698 c 0.068,-0.70506 0.20784,-0.87439 0.77671,-0.94036 0.7951,-0.0922 1.05748,0.33785 0.73517,1.20494 -0.15153,0.40762 -0.43782,0.59531 -0.90804,0.59531 -0.61541,0 -0.67814,-0.0893 -0.60384,-0.85989 z m 3.26886,0.52916 c -0.0576,-0.1819 -0.0836,-2.89057 -0.0578,-6.01927 l 0.0469,-5.68854 1.12448,-0.0814 1.12448,-0.0814 v 6.10063 6.10063 h -1.06664 c -0.62106,0 -1.11039,-0.13815 -1.17137,-0.33073 z m 1.44426,-0.31511 c 0,-0.0642 -0.11907,-0.19026 -0.26459,-0.2802 -0.14552,-0.0899 -0.26458,-0.0374 -0.26458,0.11668 0,0.15411 0.11906,0.2802 0.26458,0.2802 0.14552,0 0.26459,-0.0525 0.26459,-0.11668 z m 0.26458,-2.39686 c 0,-0.0728 -0.0595,-0.1323 -0.13229,-0.1323 -0.0728,0 -0.13229,0.0595 -0.13229,0.1323 0,0.0728 0.0595,0.13229 0.13229,0.13229 0.0728,0 0.13229,-0.0595 0.13229,-0.13229 z m -0.26458,-5.57187 c 0,-0.22687 -0.12101,-0.3377 -0.2689,-0.2463 -0.1479,0.0914 -0.2004,0.27702 -0.11668,0.41249 0.22681,0.36699 0.38558,0.29856 0.38558,-0.16619 z m -0.26459,-0.76252 c 0,-0.0642 -0.13746,-0.20163 -0.30546,-0.30546 -0.18926,-0.11697 -0.23364,-0.0726 -0.11668,0.11667 0.1885,0.305 0.42214,0.40949 0.42214,0.18879 z m 0,-1.32292 c 0,-0.0642 -0.11906,-0.19026 -0.26458,-0.28019 -0.14552,-0.0899 -0.26458,-0.0374 -0.26458,0.11667 0,0.15411 0.11906,0.2802 0.26458,0.2802 0.14552,0 0.26458,-0.0525 0.26458,-0.11668 z m 4.2831,10.51114 c -0.33644,-0.0643 -0.84201,-0.49451 -1.12349,-0.95616 -0.44844,-0.73544 -0.51192,-1.35306 -0.51278,-4.9893 -5.3e-4,-2.28249 0.10957,-4.44076 0.2447,-4.79618 0.316,-0.83115 1.50392,-1.24032 3.60094,-1.24032 1.23039,0 1.81012,0.1287 2.27562,0.50519 0.59939,0.48478 0.6281,0.66852 0.71062,4.54906 0.10137,4.76681 -0.0245,5.63939 -0.93576,6.48387 -0.56479,0.52343 -0.93883,0.62649 -2.16544,0.59668 -0.81549,-0.0198 -1.75798,-0.0886 -2.09441,-0.15284 z m 3.06604,-5.74434 c 0.0554,-3.19355 -0.009,-4.26529 -0.26458,-4.42772 -0.60116,-0.3815 -1.76364,-0.24276 -2.01604,0.24062 -0.29459,0.56415 -0.39087,7.49014 -0.1098,7.89783 0.28375,0.41158 0.8863,0.61307 1.65587,0.55371 l 0.66145,-0.051 z m 0.85295,3.68426 c 0,-0.0728 -0.0595,-0.1323 -0.1323,-0.1323 -0.0728,0 -0.13229,0.0595 -0.13229,0.1323 0,0.0728 0.0595,0.13229 0.13229,0.13229 0.0728,0 0.1323,-0.0595 0.1323,-0.13229 z m -4.49792,-5.29167 c 0,-0.0728 -0.0595,-0.13229 -0.13229,-0.13229 -0.0728,0 -0.13229,0.0595 -0.13229,0.13229 0,0.0728 0.0595,0.13229 0.13229,0.13229 0.0728,0 0.13229,-0.0595 0.13229,-0.13229 z m 0.52917,-0.52917 c 0,-0.0728 -0.0595,-0.13229 -0.1323,-0.13229 -0.0728,0 -0.13229,0.0595 -0.13229,0.13229 0,0.0728 0.0595,0.13229 0.13229,0.13229 0.0728,0 0.1323,-0.0595 0.1323,-0.13229 z m -0.52917,-0.26458 c 0,-0.0728 -0.0595,-0.13229 -0.13229,-0.13229 -0.0728,0 -0.13229,0.0595 -0.13229,0.13229 0,0.0728 0.0595,0.13229 0.13229,0.13229 0.0728,0 0.13229,-0.0595 0.13229,-0.13229 z m 0.13229,-0.66146 c 0.0899,-0.14552 0.0374,-0.26458 -0.11667,-0.26458 -0.15411,0 -0.2802,0.11906 -0.2802,0.26458 0,0.14552 0.0525,0.26458 0.11667,0.26458 0.0642,0 0.19026,-0.11906 0.2802,-0.26458 z m -52.216059,4.5493 c -1.312977,-0.075 -1.404728,-0.12317 -1.260383,-0.66146 0.08562,-0.3193 0.157302,-0.67553 0.159289,-0.79161 0.002,-0.11608 0.747754,-0.17562 1.657263,-0.13229 1.46914,0.07 1.66281,0.14319 1.73584,0.65618 0.10928,0.76756 -0.53678,1.02947 -2.292009,0.92918 z"
         id="path253" />
    </g>
  </g>
</svg>
